# xmcd CD database file
# Copyright (C) 1997 Ti Kan
# 
# Track frame offsets:
#     150
#     16862
#     33575
#     50287
#     67000
#     83712
#     100425
#     117137
#     133850
#     150562
#     167275
#     183987
#     200700
#     217412
#     234125
#     250837
#     267550
#     284262
# 
# Disc length: 4010 seconds
# 
# Revision: 1
# Processed by: cddbd v1.4b41PL1 Copyright (c) Steve Scherf et al.
# Submitted via: DiscPlay 4.0.3
# 
DISCID=000fa812
DTITLE=Kris Tyler - What A Woman Knows (single)
DYEAR=1900
DGENRE=
TTITLE0=What A Woman Knows
TTITLE1=What A Woman Knows
TTITLE2=What A Woman Knows
TTITLE3=What A Woman Knows
TTITLE4=What A Woman Knows
TTITLE5=What A Woman Knows
TTITLE6=What A Woman Knows
TTITLE7=What A Woman Knows
TTITLE8=What A Woman Knows
TTITLE9=What A Woman Knows
TTITLE10=What A Woman Knows
TTITLE11=What A Woman Knows
TTITLE12=What A Woman Knows
TTITLE13=What A Woman Knows
TTITLE14=What A Woman Knows
TTITLE15=What A Woman Knows
TTITLE16=What A Woman Knows
TTITLE17=What A Woman Knows
EXTD=
EXTT0=
EXTT1=
EXTT2=
EXTT3=
EXTT4=
EXTT5=
EXTT6=
EXTT7=
EXTT8=
EXTT9=
EXTT10=
EXTT11=
EXTT12=
EXTT13=
EXTT14=
EXTT15=
EXTT16=
EXTT17=
PLAYORDER=
